,
Brought to you by  http://www.scenetime.com/signup.php
 
 Hottest scene tracker on the net !!!   
 
No fake torrents from scenebalance 
shame on those who comment fake before downloading my torrents

    seed back for speed


 



...................................NFO:.................................................[pre][img]http://leetleech.org/images/65355684745350702894.png[/img]   
            
*******************************************************************************
                  True.Grit.2010.480p.BRRip.XviD.AC3-PRESTiGE
*******************************************************************************

-------------------------------------------------------------------------------
                              General Information
-------------------------------------------------------------------------------

TiTLE............: True.Grit.2010.480p.BRRip.XviD.AC3-PRESTiGE

iMDB.............: http://www.imdb.com/title/tt1403865/

GENRE............: Adventure | Drama | Western

LANGUAGE.........: English

SOURCE...........: True.Grit.2010.BluRay.720p.DTS.x264-CHD MANY THANKS!!

FiLE SiZE........: 1.86GB

SUBS.............: N/A

DURATiON.........: 1h 50mn

ENCODED by.......: akosipalos



ViDEO iNFO:

ID                               : 0
Format                           : MPEG-4 Visual
Format profile                   : Advanced Simple@L5
Format settings, BVOP            : Yes
Format settings, QPel            : No
Format settings, GMC             : No warppoints
Format settings, Matrix          : Default (H.263)
Codec ID                         : XVID
Codec ID/Hint                    : XviD
Duration                         : 1h 50mn
Bit rate                         : 1 956 Kbps
Width                            : 720 pixels
Height                           : 304 pixels
Display aspect ratio             : 2.35:1
Frame rate                       : 23.976 fps
Color space                      : YUV
Chroma subsampling               : 4:2:0
Bit depth                        : 8 bits
Scan type                        : Progressive
Bits/(Pixel*Frame)               : 0.373
Stream size                      : 1.51 GiB (81%)
Writing library                  : XviD 1.2.1 (UTC 2008-12-04)


AUDiO iNFO:

ID                               : 1
Format                           : AC-3
Format/Info                      : Audio Coding 3
Mode extension                   : CM (complete main)
Codec ID                         : 2000
Duration                         : 1h 50mn
Bit rate mode                    : Constant
Bit rate                         : 448 Kbps
Channel(s)                       : 6 channels
Channel positions                : Front: L C R, Side: L R, LFE
Sampling rate                    : 48.0 KHz
Bit depth                        : 16 bits
Stream size                      : 354 MiB (19%)
Alignment                        : Aligned on interleaves
Interleave, duration             : 64 ms (1.53 video frames)
Interleave, preload duration     : 192 ms
Title                            : T2_Audio - 5.1 channels



-------------------------------------------------------------------------------
                                 PLOT:
-------------------------------------------------------------------------------


A drunken, hard-nosed U.S. Marshal and a Texas Ranger help a stubborn young woman track down her father's murderer in Indian territory.


-------------------------------------------------------------------------------
                                 CAST:
-------------------------------------------------------------------------------


Jeff Bridges ... Rooster Cogburn

Hailee Steinfeld ... Mattie Ross

Matt Damon ... LaBoeuf

Josh Brolin ... Tom Chaney

Barry Pepper ... Lucky Ned Pepper

Dakin Matthews ... Col. Stonehill

Jarlath Conroy ... Undertaker

Paul Rae ... Emmett Quincy

Domhnall Gleeson ... Moon (The Kid)

Elizabeth Marvel ... 40-Year-Old Mattie

Roy Lee Jones ... Yarnell



-------------------------------------------------------------------------------
                               SCREENS:
-------------------------------------------------------------------------------


[img]http://i824.photobucket.com/albums/zz161/akosipalos/tg1.png[/img]

[img]http://i824.photobucket.com/albums/zz161/akosipalos/tg2.png[/img]

[img]http://i824.photobucket.com/albums/zz161/akosipalos/tg3.png[/img]

[img]http://i824.photobucket.com/albums/zz161/akosipalos/tg4.png[/img]

[img]http://i824.photobucket.com/albums/zz161/akosipalos/tg5.png[/img]


-------------------------------------------------------------------------------
                             Release Notes
-------------------------------------------------------------------------------


PRESTiGE - IS LOOKING FOR?: CAMMER'S, AUDIO SUPPLIERS, SYNCER'S, RETAIL
SUPPLIER'S, SILVER'S, SCREENER'S, LINE CAPPER'S

ENCODER'S - ANYTHING AT ALL EMAIL US AT..... prestige@hushmail.me

** ** ** ** ** ** ** ** **

PRESTiGE is the level of respect at which one is regarded by others....RIzE Above Or Sink Below...


-------------------------------------------------------------------------------
                                 GREETZ:
-------------------------------------------------------------------------------


twisted ,bigguy, CTFX, HiTM4N, smelise.paranoid53, mtyy, fifer, akosipalos, DiLLoN, imagine,"the squad" , floridajoe and To All Encoders Past And Present...


-------------------------------------------------------------------------------
Generated with Cool NFO Creator - http://fly.to/coolbeans
-------------------------------------------------------------------------------
[/pre]